HIERARCHY
ROOT Hips
{
	OFFSET 0.000000 0.000000 0.000000
	CHANNELS 6 Xposition Yposition Zposition Zrotation Yrotation Xrotation 
	JOINT LHipJoint
	{
		OFFSET 0.000000 0.000000 0.000000
		CHANNELS 3 Zrotation Yrotation Xrotation
		JOINT LeftUpLeg
		{
			OFFSET 1.363060 -1.794630 0.839290
			CHANNELS 3 Zrotation Yrotation Xrotation
			JOINT LeftLeg
			{
				OFFSET 2.448110 -6.726130 0.000000
				CHANNELS 3 Zrotation Yrotation Xrotation
				JOINT LeftFoot
				{
					OFFSET 2.562200 -7.039590 0.000000
					CHANNELS 3 Zrotation Yrotation Xrotation
					JOINT LeftToeBase
					{
						OFFSET 0.157640 -0.433110 2.322550
						CHANNELS 3 Zrotation Yrotation Xrotation
						End Site
						{
							OFFSET 0.000000 0.000000 0.000000
						}
					}
				}
			}
		}
	}
	JOINT RHipJoint
	{
		OFFSET 0.000000 0.000000 0.000000
		CHANNELS 3 Zrotation Yrotation Xrotation
		JOINT RightUpLeg
		{
			OFFSET -1.305520 -1.794630 0.839290
			CHANNELS 3 Zrotation Yrotation Xrotation
			JOINT RightLeg
			{
				OFFSET -2.542530 -6.985550 0.000000
				CHANNELS 3 Zrotation Yrotation Xrotation
				JOINT RightFoot
				{
					OFFSET -2.568260 -7.056230 0.000000
					CHANNELS 3 Zrotation Yrotation Xrotation
					JOINT RightToeBase
					{
						OFFSET -0.164730 -0.452590 2.363150
						CHANNELS 3 Zrotation Yrotation Xrotation
						End Site
						{
							OFFSET 0.000000 0.000000 0.000000
						}
					}
				}
			}
		}
	}
	JOINT LowerBack
	{
		OFFSET 0.000000 0.000000 0.000000
		CHANNELS 3 Zrotation Yrotation Xrotation
		JOINT Spine
		{
			OFFSET 0.028270 2.035590 -0.193380
			CHANNELS 3 Zrotation Yrotation Xrotation
			JOINT Spine1
			{
				OFFSET 0.056720 2.048850 -0.042750
				CHANNELS 3 Zrotation Yrotation Xrotation
				JOINT Neck
				{
					OFFSET 0.000000 0.000000 0.000000
					CHANNELS 3 Zrotation Yrotation Xrotation
					JOINT Neck1
					{
						OFFSET -0.054170 1.746240 0.172020
						CHANNELS 3 Zrotation Yrotation Xrotation
						JOINT Head
						{
							OFFSET 0.104070 1.761360 -0.123970
							CHANNELS 3 Zrotation Yrotation Xrotation
							End Site
							{
								OFFSET 0.000000 0.000000 0.000000
							}
						}
					}
				}
				JOINT LeftShoulder
				{
					OFFSET 0.000000 0.000000 0.000000
					CHANNELS 3 Zrotation Yrotation Xrotation
					JOINT LeftArm
					{
						OFFSET 3.362410 1.200890 -0.311210
						CHANNELS 3 Zrotation Yrotation Xrotation
						JOINT LeftForeArm
						{
							OFFSET 4.983000 -0.000000 -0.000000
							CHANNELS 3 Zrotation Yrotation Xrotation
							JOINT LeftHand
							{
								OFFSET 3.483560 -0.000000 -0.000000
								CHANNELS 3 Zrotation Yrotation Xrotation
								JOINT LeftFingerBase
								{
									OFFSET 0.000000 0.000000 0.000000
									CHANNELS 3 Zrotation Yrotation Xrotation
									JOINT LeftHandIndex1
									{
										OFFSET 0.715260 -0.000000 -0.000000
										CHANNELS 3 Zrotation Yrotation Xrotation
										End Site
										{
											OFFSET 0.000000 0.000000 0.000000
										}
									}
								}
								JOINT LThumb
								{
									OFFSET 0.000000 0.000000 0.000000
									CHANNELS 3 Zrotation Yrotation Xrotation
									End Site
									{
										OFFSET 0.000000 0.000000 0.000000
									}
								}
							}
						}
					}
				}
				JOINT RightShoulder
				{
					OFFSET 0.000000 0.000000 0.000000
					CHANNELS 3 Zrotation Yrotation Xrotation
					JOINT RightArm
					{
						OFFSET -3.136600 1.374050 -0.404650
						CHANNELS 3 Zrotation Yrotation Xrotation
						JOINT RightForeArm
						{
							OFFSET -5.241900 -0.000000 -0.000000
							CHANNELS 3 Zrotation Yrotation Xrotation
							JOINT RightHand
							{
								OFFSET -3.444170 -0.000000 -0.000000
								CHANNELS 3 Zrotation Yrotation Xrotation
								JOINT RightFingerBase
								{
									OFFSET 0.000000 0.000000 0.000000
									CHANNELS 3 Zrotation Yrotation Xrotation
									JOINT RightHandIndex1
									{
										OFFSET -0.622530 -0.000000 -0.000000
										CHANNELS 3 Zrotation Yrotation Xrotation
										End Site
										{
											OFFSET 0.000000 0.000000 0.000000
										}
									}
								}
								JOINT RThumb
								{
									OFFSET 0.000000 0.000000 0.000000
									CHANNELS 3 Zrotation Yrotation Xrotation
									End Site
									{
										OFFSET 0.000000 0.000000 0.000000
									}
								}
							}
						}
					}
				}
			}
		}
	}
}
MOTION
Frames: 11
Frame Time: 0.008333
-22.059951 15.482085 -1.065352 115.279606 75.444759 133.705496 2.529290 -2.420431 -3.640289 -29.773639 7.843469 17.945462 -1.312117 2.221654 4.107483 1.177757 -14.423986 -14.512966 0.663700 -5.210100 -14.508900 -0.597425 0.051748 -0.025047 4.360099 1.626325 -68.078207 -16.950460 -19.979982 82.758828 -0.291471 -8.483230 -22.930822 -0.153100 -2.521400 6.949000 -7.046730 -1.721929 21.842968 -0.189681 -2.632765 0.742450 1.565639 -1.401734 3.892219 -5.385616 0.300914 -25.609277 3.503481 2.337403 3.782182 -0.217800 0.727400 9.459100 6.119181 -2.214633 0.301066 -86.247334 -20.656320 65.022495 93.962360 -59.922223 -63.918347 -0.959345 0.710506 -6.372180 41.603805 -26.410523 -22.647900 -7.125000 0.000000 0.000000 7.094800 -4.547000 -7.692200 -3.869533 3.260049 1.496104 55.691421 -51.432838 67.162386 -57.122895 56.077800 -27.498662 1.011131 -1.696504 -24.815879 -29.657865 -26.318277 13.153200 7.125000 0.000000 0.000000 -0.682000 -57.129900 0.202700 
-21.797897 15.466478 -1.070963 118.414806 75.386064 136.833682 2.585484 -2.375514 -3.616691 -29.322573 6.878578 18.924169 -1.321875 2.350439 4.610942 1.090361 -13.730171 -13.622985 0.645200 -5.138600 -14.304300 -0.641525 0.093497 -0.084208 5.748376 0.546496 -66.959848 -17.001177 -20.035000 82.844704 -0.370773 -9.719450 -25.475737 -0.006900 -0.537900 1.478000 -6.219278 -1.993219 21.961234 0.021458 -2.790038 0.727836 1.936620 -1.508006 3.825714 -5.457356 0.349363 -26.211825 3.141424 2.531831 4.071031 -0.374900 0.756000 9.770900 6.188569 -2.312413 0.356506 -85.595716 -20.695543 65.783581 95.853509 -59.837058 -65.520326 -0.965343 0.731677 -5.694100 42.288033 -26.554969 -23.257400 -7.125000 0.000000 0.000000 7.447200 -5.000000 -8.134400 -3.758959 3.358393 1.211604 53.207100 -52.871421 68.766731 -58.162412 56.329494 -28.223765 1.033664 -1.670145 -23.625498 -27.385125 -24.857866 11.398200 7.125000 0.000000 0.000000 1.363200 -55.129100 -0.339100 
-21.526255 15.448423 -1.077491 120.207328 75.583173 138.924220 2.633805 -2.339143 -3.588558 -29.040794 5.986109 19.399304 -1.342429 2.571933 5.313067 1.007877 -12.335293 -12.806289 0.855500 -5.898700 -16.490700 -0.748693 0.115333 -0.135001 7.064297 0.038519 -65.904363 -16.988746 -20.109744 82.740463 -0.303737 -11.531668 -27.288987 -0.168400 2.643600 -7.288100 -5.470569 -2.113489 21.630759 0.200133 -2.769314 0.703114 2.213874 -1.527118 3.907918 -5.605199 0.355296 -26.653728 2.952109 2.678326 4.260010 -0.428900 0.781800 9.977300 6.241559 -2.367319 0.397964 -84.904711 -20.845698 66.449788 97.037953 -59.773788 -66.520358 -0.963253 0.743063 -5.164957 42.478170 -26.460481 -23.335200 -7.125000 0.000000 0.000000 7.579200 -4.972400 -8.277700 -3.671984 3.426867 1.006818 51.444300 -54.004495 69.366416 -58.583920 56.412004 -28.482672 1.011893 -1.668190 -21.893131 -25.316234 -22.298685 9.374000 7.125000 0.000000 0.000000 2.838700 -52.041900 -0.492500 
-21.238088 15.432510 -1.093914 120.424104 75.636187 139.568544 2.656500 -2.339004 -3.572773 -29.215286 5.336887 19.383277 -1.338713 3.024360 6.556414 0.905306 -11.134681 -11.825742 0.887600 -6.005600 -16.800600 -0.860609 0.139708 -0.179389 7.644441 -0.329824 -64.755701 -16.943538 -20.142147 82.586862 -0.465520 -10.652326 -27.538194 -0.375000 3.933300 -10.889000 -5.028410 -2.136062 21.056624 0.312855 -2.704160 0.666525 2.364140 -1.516233 4.054330 -5.637468 0.404323 -26.756633 2.723337 2.777255 4.307937 -0.534300 0.791200 10.020100 6.292821 -2.404655 0.437031 -84.296847 -20.319445 67.056595 98.611972 -59.680926 -67.846778 -0.950717 0.761505 -4.784108 41.954304 -26.550531 -23.023400 -7.125000 0.000000 0.000000 7.254500 -4.883700 -7.907200 -3.608502 3.434236 0.889745 50.436275 -54.725931 69.103535 -58.488757 56.367424 -28.383052 0.981834 -1.671309 -19.563908 -23.528519 -20.773622 8.064700 7.125000 0.000000 0.000000 4.221200 -50.167200 -0.538500 
-20.950226 15.433428 -1.105135 120.608761 75.369942 139.966892 2.674378 -2.349016 -3.556272 -29.620408 4.623164 19.248813 -1.290555 3.728427 8.460164 0.791998 -10.233544 -10.630021 0.944700 -6.190200 -17.337400 -0.960160 0.193623 -0.249369 7.579630 -0.873659 -63.101177 -16.867228 -20.148791 82.362569 -0.867071 -8.560274 -28.424472 -0.225400 3.055800 -8.434000 -4.803548 -2.165513 20.891505 0.397910 -2.696410 0.627678 2.503536 -1.525861 4.037041 -5.482196 0.474524 -26.722731 2.421238 2.802505 4.310150 -0.733700 0.769100 10.018400 6.346917 -2.442200 0.464925 -83.796873 -19.487744 67.708134 100.012902 -59.572512 -69.016999 -0.932368 0.784936 -4.556065 41.124496 -26.896853 -22.669400 -7.125000 0.000000 0.000000 6.687800 -4.981400 -7.291200 -3.565270 3.411641 0.842164 50.069898 -54.897172 68.524538 -58.338107 56.309247 -28.281668 0.958800 -1.677361 -17.862313 -22.874798 -20.421001 7.700600 7.125000 0.000000 0.000000 4.751400 -49.715200 -0.553500 
-20.654103 15.436284 -1.105339 121.884253 75.962331 141.146284 2.732720 -2.300216 -3.512986 -29.066838 4.151226 19.198137 -1.193077 4.473444 10.570896 0.683067 -8.877642 -9.399545 0.898200 -6.040200 -16.901100 -1.262173 0.255155 -0.356452 8.400226 -0.497851 -60.757823 -16.652402 -20.239346 81.691563 -1.260785 -6.234096 -29.146856 -0.100300 2.042300 -5.622600 -4.013993 -2.075651 20.903649 0.523782 -2.400180 0.678099 2.499602 -1.381435 4.165385 -5.265360 0.525746 -26.778412 2.159631 2.781610 4.276874 -0.922200 0.733600 10.005300 6.410174 -2.433194 0.478058 -83.434211 -18.771488 68.285449 100.744639 -59.513584 -69.619634 -0.914185 0.798372 -4.632420 40.168681 -27.179786 -22.177100 -7.125000 0.000000 0.000000 6.066000 -4.956200 -6.603200 -3.520703 3.348411 0.910599 50.500798 -54.334969 67.420699 -58.004270 56.199269 -28.053907 0.940559 -1.685916 -16.731539 -22.814028 -20.574897 7.748100 7.125000 0.000000 0.000000 4.832800 -49.875700 -0.582100 
-20.352062 15.441282 -1.085957 124.519754 77.107910 143.503993 2.824994 -2.193303 -3.432529 -27.524352 4.090397 18.904808 -1.014119 5.286346 12.953861 0.547217 -7.429823 -7.642828 0.747900 -5.523800 -15.408900 -1.695611 0.330187 -0.490398 10.149013 0.456766 -58.122326 -16.326116 -20.390321 80.651342 -1.400511 -5.176854 -29.247285 -0.211600 2.961600 -8.171700 -2.660250 -1.950957 21.159104 0.613594 -1.970045 0.730250 2.098196 -1.114403 4.179726 -4.982859 0.514334 -26.794154 2.095173 2.631262 4.207150 -1.018900 0.670900 9.967400 6.451909 -2.376027 0.472933 -82.913368 -17.719478 68.769257 101.219753 -59.472469 -70.021984 -0.900822 0.797501 -4.881947 39.209196 -27.248259 -21.541800 -7.125000 0.000000 0.000000 5.499600 -4.680000 -5.956600 -3.516947 3.288935 1.085404 51.911133 -53.212953 65.913590 -57.301188 55.976542 -27.548119 0.928842 -1.702917 -16.365658 -23.445770 -21.250916 8.248100 7.125000 0.000000 0.000000 4.375900 -50.671400 -0.612600 
-20.056653 15.461480 -1.084019 123.335135 77.394365 142.431814 2.837725 -2.210350 -3.423832 -27.734184 3.651330 17.928974 -0.784053 6.396737 15.969781 0.422587 -5.863261 -6.070075 0.727900 -5.451100 -15.199800 -1.929349 0.378987 -0.597652 10.326493 0.788685 -56.309340 -16.187220 -20.451285 80.229845 -1.478784 -4.400930 -29.159748 -0.429600 4.206500 -11.658200 -2.702586 -1.719095 21.038083 0.682581 -1.635267 0.811576 2.278959 -0.993540 4.474465 -4.802152 0.599035 -26.568455 1.962417 2.615119 3.914649 -1.135800 0.655900 9.728400 6.503345 -2.321454 0.468128 -82.985503 -16.658781 69.146166 101.060355 -59.495087 -69.851613 -0.888603 0.803234 -4.996929 38.751663 -27.239351 -21.218400 -7.125000 0.000000 0.000000 5.233100 -4.514100 -5.651600 -3.530553 3.125206 1.288558 53.151562 -51.296563 64.473653 -56.617410 55.813510 -27.130533 0.904657 -1.711145 -16.846429 -24.978912 -22.370835 9.300100 7.125000 0.000000 0.000000 3.152000 -52.095600 -0.551100 
-19.773075 15.504322 -1.119823 115.818998 76.267541 135.514650 2.744324 -2.397381 -3.483688 -30.704067 2.965585 16.057078 -0.484402 7.867815 19.705165 0.280642 -3.817255 -4.239746 0.508400 -4.570400 -12.687100 -1.812870 0.362351 -0.581478 7.833799 0.127564 -55.680507 -16.287806 -20.337864 80.629321 -1.556468 -3.256606 -28.731129 -0.635200 5.099300 -14.192000 -4.558556 -1.368128 21.272168 0.598552 -1.566820 0.620265 2.848555 -1.049198 3.940686 -4.747970 0.734007 -26.467438 1.825638 2.753290 3.833881 -1.234200 0.699000 9.704100 6.545135 -2.344698 0.428800 -83.650747 -14.583308 69.356937 100.733328 -59.479246 -69.518845 -0.876022 0.818988 -4.949540 38.509147 -27.332523 -21.115000 -7.125000 0.000000 0.000000 5.062000 -4.552300 -5.468500 -3.618371 3.048440 1.372161 53.863206 -49.404037 63.566523 -56.471424 55.769782 -27.108069 0.887276 -1.714881 -17.869970 -26.908548 -23.703820 10.686200 7.125000 0.000000 0.000000 1.536700 -53.846300 -0.334300 
-19.476238 15.527070 -1.115335 112.300137 76.634944 131.999062 2.737865 -2.435832 -3.516987 -31.076274 2.943793 14.491357 -0.016990 9.244886 23.530455 0.160432 -1.732917 -2.273093 0.379800 -3.958100 -10.958800 -2.095920 0.403612 -0.712498 7.942390 0.783684 -53.951622 -16.198819 -20.417204 80.358093 -1.540499 -2.741713 -28.190632 -0.816900 5.767100 -16.110200 -5.153944 -0.932369 20.942877 0.665362 -0.999147 0.864522 3.287505 -0.879855 4.720169 -4.749815 0.739802 -26.114884 1.773086 2.678310 3.265823 -1.278400 0.659500 9.249400 6.594520 -2.250283 0.446139 -84.264949 -13.157073 69.292627 99.970641 -59.576234 -68.819387 -0.870472 0.832361 -5.287050 38.525804 -27.747135 -21.391200 -7.125000 0.000000 0.000000 4.960500 -5.046700 -5.397200 -3.647821 2.789467 1.608830 55.310961 -46.385212 61.597812 -56.315321 55.860935 -27.122610 0.864798 -1.701963 -19.171045 -28.764971 -25.178343 12.217900 7.125000 0.000000 0.000000 -0.019000 -55.803100 0.005000 
-19.180420 15.551551 -1.114009 108.534588 76.810629 128.116854 2.719705 -2.468463 -3.507570 -31.582711 2.923747 12.613845 0.639047 10.774600 27.921290 0.079871 -0.127567 -0.696174 0.252400 -3.232400 -8.926400 -2.322108 0.455479 -0.820524 7.876186 1.218321 -52.225869 -16.098637 -20.465726 80.058109 -1.508789 -2.313173 -27.593658 -0.970900 6.273200 -17.579200 -5.507899 -0.578069 21.265557 0.603191 -0.600953 0.915021 3.155247 -0.680971 4.658977 -4.531058 0.827737 -25.564962 1.761147 2.599181 2.807792 -1.328600 0.635700 8.881900 6.611172 -2.202671 0.455325 -84.551138 -11.184523 69.128203 98.533247 -59.687666 -67.574228 -0.879535 0.825969 -5.871986 38.979628 -28.054957 -21.901400 -7.125000 0.000000 0.000000 5.139900 -5.559000 -5.635400 -3.736830 2.640657 1.793943 56.947218 -43.576719 59.949335 -56.101213 55.905765 -27.038046 0.849475 -1.699073 -20.260121 -30.331087 -26.285015 13.521100 7.125000 0.000000 0.000000 -1.433700 -57.328500 0.433000 
